<?xml version="1.0" standalone="no"?>
<!DOCTYPE svg PUBLIC "-//W3C//DTD SVG 20010904//EN"
 "http://www.w3.org/TR/2001/REC-SVG-20010904/DTD/svg10.dtd">
<svg version="1.0" xmlns="http://www.w3.org/2000/svg"
 width="64.000000pt" height="64.000000pt" viewBox="0 0 64.000000 64.000000"
 preserveAspectRatio="xMidYMid meet">

<g transform="translate(0.000000,64.000000) scale(0.100000,-0.100000)"
fill="#000000" stroke="none">
<path d="M0 320 l0 -320 320 0 320 0 0 320 0 320 -320 0 -320 0 0 -320z m339
204 c11 -10 -8 -9 -44 3 l-40 13 40 -6 c22 -3 42 -8 44 -10z m-86 -38 c11 -33
-4 -49 -40 -43 -13 2 -19 -1 -17 -7 3 -8 -9 -10 -38 -7 -41 4 -42 4 -14 12 34
9 76 46 76 67 0 23 23 8 33 -22z m107 15 c0 -5 -9 -19 -21 -32 l-20 -24 7 25
c4 14 12 28 18 32 14 10 16 10 16 -1z m-69 -76 c5 3 17 1 28 -4 73 -40 67
-105 -13 -139 -23 -11 -31 -11 -37 0 -4 6 -5 16 -3 20 8 12 -30 -4 -38 -16
-13 -19 -32 12 -32 51 0 25 6 40 19 47 10 6 27 21 39 34 11 13 22 18 24 13 2
-6 8 -9 13 -6z m-142 -52 c1 -6 -12 2 -29 19 -16 16 -30 32 -30 35 0 10 59
-43 59 -54z m-15 -28 c3 -8 1 -15 -4 -15 -6 0 -10 7 -10 15 0 8 2 15 4 15 2 0
6 -7 10 -15z m341 -82 c19 -9 35 -21 35 -25 0 -5 -4 -6 -10 -3 -6 3 -10 -4
-10 -17 0 -13 -4 -28 -8 -35 -6 -10 -64 -26 -100 -27 -7 -1 -24 -14 -38 -31
-23 -27 -25 -28 -21 -7 4 16 1 22 -13 22 -17 0 -36 27 -26 37 6 6 33 5 104 -3
28 -3 52 -3 52 0 0 4 -7 18 -16 31 -17 25 -13 75 6 75 5 0 25 -8 45 -17z
m-315 -3 c0 -28 -73 -32 -84 -4 -4 11 5 14 39 14 25 0 45 -4 45 -10z m-4 -67
c-10 -10 -19 5 -10 18 6 11 8 11 12 0 2 -7 1 -15 -2 -18z m54 -41 c0 -13 -12
-22 -22 -16 -10 6 -1 24 13 24 5 0 9 -4 9 -8z"/>
</g>
</svg>
